<svg id="Group_2232" data-name="Group 2232" xmlns="http://www.w3.org/2000/svg" xmlns:xlink="http://www.w3.org/1999/xlink" width="97.486" height="89.436" viewBox="0 0 97.486 89.436">
  <defs>
    <clipPath id="clip-path">
      <rect id="Rectangle_81" data-name="Rectangle 81" width="97.486" height="89.436" fill="#fff"/>
    </clipPath>
  </defs>
  <g id="Group_1951" data-name="Group 1951" transform="translate(0 0)" clip-path="url(#clip-path)">
    <path id="Path_274" data-name="Path 274" d="M97.434,14.264C97.4,4.674,93.223.117,84.457.048,72.6-.044,60.746.025,48.89.025S25.179-.03,13.325.042C4.424.1.1,4.562.063,13.945q-.127,30.782,0,61.565C.1,84.68,4.322,89.337,12.718,89.368q35.88.14,71.757.007c8.779-.029,12.925-4.6,12.958-14.223q.108-30.442,0-60.887M10.362,8.449A12.129,12.129,0,0,1,14.07,8.16q34.582-.021,69.162.008a11.8,11.8,0,0,1,4.284.479c2.356.938,2.525,3.287,2.413,5.645-.148,3.052-2.251,1.976-3.707,1.98-12.461.045-24.923.026-37.384.023s-24.924.01-37.385-.015c-1.691,0-3.947,1-3.923-2.465.016-2.441.443-4.585,2.831-5.365M89.939,30.316c-.135,3.52-2.547,2.177-4.13,2.186-12.461.07-24.923.038-37.385.038-12.254,0-24.508.03-36.762-.036-1.59-.008-3.991,1.305-4.111-2.21-.1-3.039.627-5.405,3.822-5.812a29.987,29.987,0,0,1,3.734-.08q33.645,0,67.293,0a28.475,28.475,0,0,1,3.734.081c3.184.425,3.922,2.794,3.805,5.832M89.9,46.873c-.31,2.848-2.472,1.81-3.9,1.854-4.357.136-8.723.188-13.077.018-5.783-.226-9.825,2.448-12.812,7.758-6.516,11.582-16.2,11.578-22.722,0-2.986-5.3-7.034-7.99-12.818-7.754-4.147.169-8.308.166-12.452-.034-1.722-.082-4.483,1.414-4.568-2.522-.076-3.583,1.37-5.523,4.769-5.525q13.39-.01,26.782-.015,4.981,0,9.965,0c11.418,0,22.836-.03,34.254.036a10.86,10.86,0,0,1,4.807.845c1.941,1,2,3.281,1.775,5.342" transform="translate(0 0)" fill="#fff"/>
  </g>
</svg>
