<svg id="Group_2235" data-name="Group 2235" xmlns="http://www.w3.org/2000/svg" xmlns:xlink="http://www.w3.org/1999/xlink" width="152.614" height="138.643" viewBox="0 0 152.614 138.643">
  <defs>
    <clipPath id="clip-path">
      <rect id="Rectangle_227" data-name="Rectangle 227" width="152.614" height="138.643" fill="none"/>
    </clipPath>
  </defs>
  <path id="Path_287" data-name="Path 287" d="M4.621,17.974,102.05,4.622,115.4,102.047,17.973,115.4ZM105.556,0,0,14.467,16.346,133.733,121.9,119.266Z" fill="#fff"/>
  <path id="Path_288" data-name="Path 288" d="M35.539,45.46,70.226,71.785,80.937,57.672l26.331,19.983L97.94,9.6,9.758,21.682l6.7,48.916Z" fill="#fff"/>
  <path id="Path_289" data-name="Path 289" d="M82.086,66.056,71.375,80.169,36.688,53.844,17.611,78.981l4.232,30.884,88.182-12.086-1.608-11.741Z" fill="#fff"/>
  <g id="Group_2234" data-name="Group 2234">
    <g id="Group_2233" data-name="Group 2233" clip-path="url(#clip-path)">
      <path id="Path_290" data-name="Path 290" d="M84.974,38.93a7.479,7.479,0,1,1-8.426-6.4,7.48,7.48,0,0,1,8.426,6.4" fill="#fec200"/>
      <path id="Path_291" data-name="Path 291" d="M121.9,84.743l8.163,16.539,18.252,2.652-13.208,12.874,3.119,18.179L121.9,126.4l-16.326,8.582,3.118-18.179L95.486,103.934l18.252-2.652Z" fill="#fec200"/>
      <path id="Path_292" data-name="Path 292" d="M140.883,138.643,121.9,128.665l-18.982,9.978,3.626-21.137L91.188,102.538l21.222-3.084L121.9,80.223l9.491,19.231,21.222,3.084-15.357,14.968Zm-18.982-14.5,13.669,7.186-2.61-15.221,11.058-10.779-15.283-2.221L121.9,89.262l-6.835,13.848-15.282,2.221,11.058,10.779-2.61,15.221Z"/>
    </g>
  </g>
</svg>
