<svg xmlns="http://www.w3.org/2000/svg" width="29.609" height="20.726" viewBox="0 0 29.609 20.726">
  <path id="Path_240" data-name="Path 240" d="M113.54,88.271a3.709,3.709,0,0,0-2.618-2.618c-2.309-.619-11.568-.619-11.568-.619s-9.259,0-11.568.619a3.708,3.708,0,0,0-2.618,2.618,41.364,41.364,0,0,0,0,14.254,3.708,3.708,0,0,0,2.618,2.618c2.309.619,11.568.619,11.568.619s9.259,0,11.568-.619a3.708,3.708,0,0,0,2.618-2.618,41.364,41.364,0,0,0,0-14.254ZM96.394,99.84V90.957l7.692,4.442Z" transform="translate(-84.55 -85.035)" fill="#fff"/>
</svg>
