<svg xmlns="http://www.w3.org/2000/svg" width="28.031" height="21.775" viewBox="0 0 28.031 21.775">
  <path id="Path_241" data-name="Path 241" d="M318.82,695.826a22.866,22.866,0,0,0-3.525-8.968,2.472,2.472,0,0,0-1.185-.995,24.669,24.669,0,0,0-4.117-1.322c-1.006-.222-1.194-.16-1.683.754a.79.79,0,0,1-.9.473,20.41,20.41,0,0,0-4.836,0,.783.783,0,0,1-.9-.464c-.465-.88-.683-.976-1.626-.769a23.667,23.667,0,0,0-4.3,1.385,2.2,2.2,0,0,0-1.022.893,26.187,26.187,0,0,0-3.23,7.341c-.285,1.117-.27,2.26-.471,3.379v3.174a5.065,5.065,0,0,1,.066,1.282,1.083,1.083,0,0,0,.447,1.1,23.554,23.554,0,0,0,6.076,3.061.916.916,0,0,0,1.137-.4,14.379,14.379,0,0,0,.762-1.234c.452-.8.37-1.048-.441-1.429a2.442,2.442,0,0,1-1.016-.65,17.441,17.441,0,0,0,13.851.008,3.27,3.27,0,0,1-1.13.683c-.619.321-.723.619-.405,1.218a15.279,15.279,0,0,0,.82,1.354.969.969,0,0,0,1.241.434,22.867,22.867,0,0,0,6.106-3.144.9.9,0,0,0,.42-.7A31.517,31.517,0,0,0,318.82,695.826Zm-19.175,3.3a2.844,2.844,0,0,1-1.795-2.863,2.771,2.771,0,0,1,2.007-2.635,2.593,2.593,0,0,1,3.005,2.791C302.847,698.337,301.26,699.672,299.645,699.124Zm12.292-1.579a2.434,2.434,0,0,1-2.713,1.667c-1.243-.253-2.1-1.447-2.075-3.15a2.665,2.665,0,0,1,1.609-2.312,2.261,2.261,0,0,1,2.58.55A3,3,0,0,1,311.936,697.546Z" transform="translate(-291.027 -684.433)" fill="#fff"/>
</svg>
